<svg fill="none" height="312" viewBox="0 0 1080 312" width="1080" xmlns="http://www.w3.org/2000/svg"><g fill="#00645a"><path d="m813.854 156.878c.05-47.29 34.798-94.878 103.206-94.878 66.622 0 101.31 48.119 100.53 93.688-.91 52.826-36.121 80.152-67.665 89.977l-3.594-15.751c-1.883-8.257.354-15.624 6.194-20.83 7.552-6.733 12.044-15.057 14.383-26.569 2.473-12.17 1.311-25.526-4.177-38.867l-18.658-52.4673h-18.711l14.953 59.9343c1.369 5.97-3.166 11.664-9.291 11.664l-18.17-79.691h-17.009l16.366 98.346c-10.251.92-14.044-5.727-14.896-10.536l-10.436-74.2762h-17.277s.106 40.0152.106 67.3432c0 40.165 21.469 52.122 36.296 55.688 8.386 2.018 13.987 8.539 15.511 17.696l2.104 12.651c-31.755.081-109.853-11.738-109.765-93.122z"/><path d="m62 109.956h44.151v109.023h25.035v-109.023h44.32v-18.777h-113.506z"/><path d="m211.158 91.2438h-24.359v127.7352h24.359v-46.688c0-23.006 15.732-37.046 29.941-37.046 9.642 0 16.747 6.259 16.747 18.946v64.788h24.359v-72.569c0-20.638-13.702-30.618-29.941-30.618-16.747 0-34.34 11.164-41.106 31.802z"/><path clip-rule="evenodd" d="m294.092 167.554c0-25.881 16.577-51.763 50.071-51.763 27.066 0 41.444 16.409 41.444 47.196v4.736h-71.047c2.707 16.071 15.055 28.757 35.862 28.757 12.518 0 25.881-4.567 36.877-13.363v23.851c-12.518 9.304-26.727 13.871-40.768 13.871-32.817 0-52.439-24.19-52.439-53.285zm66.818-11.672c0-17.085-6.936-25.543-19.961-25.543-15.563 0-24.697 11.841-26.558 25.543z" fill-rule="evenodd"/><path d="m490.556 91.179h-90.838v127.8h25.205v-58.614h57.175v-18.777h-57.175v-31.632h65.633z"/><path clip-rule="evenodd" d="m492.835 168.569c0-26.22 18.777-52.778 54.977-52.778 35.523 0 53.961 26.051 53.961 52.271 0 26.388-18.776 52.777-54.976 52.777-35.354 0-53.962-26.219-53.962-52.27zm55.653 33.494c18.608 0 28.419-14.886 28.419-32.479 0-18.438-10.657-35.016-30.787-35.016-18.607 0-28.419 14.886-28.419 32.309 0 18.608 10.657 35.186 30.787 35.186z" fill-rule="evenodd"/><path d="m636.159 117.484h-22.498v101.495h24.359v-61.236c5.075-12.517 17.085-19.284 29.434-19.284 6.597 0 13.533 1.861 18.777 5.583v-23.852c-4.06-2.537-9.304-4.06-14.548-4.06-15.224 0-30.11 9.642-35.524 32.648z"/><path d="m744.444 158.46 48.298-51.429h-27.62l-42.113 43.432-.013-59.284h-24.347v127.8h24.524l-.177-52.121s40.367-.991 40.367 52.121h26.4c0-51.425-45.319-60.519-45.319-60.519z"/></g></svg>