<svg xmlns="http://www.w3.org/2000/svg" xmlns:xlink="http://www.w3.org/1999/xlink" width="500" zoomAndPan="magnify" viewBox="0 0 375 374.999991" height="500" preserveAspectRatio="xMidYMid meet" version="1.0"><defs><clipPath id="4a416aa703"><path d="M 24.089844 161 L 306 161 L 306 239 L 24.089844 239 Z M 24.089844 161 " clip-rule="nonzero"/></clipPath><clipPath id="803e20641d"><path d="M 301 131 L 351.089844 131 L 351.089844 211 L 301 211 Z M 301 131 " clip-rule="nonzero"/></clipPath></defs><g clip-path="url(#4a416aa703)"><path fill="#00a082" d="M 24.089844 201.417969 L 24.089844 201.21875 C 24.089844 180.917969 39.660156 163.738281 61.625 163.738281 C 72.546875 163.738281 79.796875 166.328125 86.453125 171.101562 C 87.273438 171.710938 87.914062 172.472656 88.371094 173.382812 C 88.828125 174.296875 89.054688 175.261719 89.050781 176.28125 C 89.050781 176.695312 89.011719 177.105469 88.929688 177.507812 C 88.851562 177.914062 88.730469 178.308594 88.570312 178.691406 C 88.410156 179.074219 88.21875 179.4375 87.984375 179.78125 C 87.753906 180.125 87.492188 180.441406 87.199219 180.734375 C 86.90625 181.027344 86.585938 181.289062 86.242188 181.519531 C 85.894531 181.75 85.53125 181.941406 85.148438 182.101562 C 84.765625 182.257812 84.367188 182.378906 83.960938 182.457031 C 83.554688 182.539062 83.140625 182.578125 82.726562 182.578125 C 81.0625 182.578125 79.796875 181.847656 78.800781 181.117188 C 74.140625 177.734375 69.015625 175.414062 61.160156 175.414062 C 47.71875 175.414062 37.535156 187.15625 37.535156 201.015625 L 37.535156 201.21875 C 37.535156 216.144531 47.382812 227.15625 62.292969 227.15625 C 69.144531 227.15625 75.402344 224.964844 79.863281 221.644531 L 79.863281 208.050781 L 65.488281 208.050781 C 62.359375 208.050781 59.757812 205.660156 59.757812 202.542969 C 59.757812 199.421875 62.359375 196.972656 65.488281 196.972656 L 85.785156 196.972656 C 89.449219 196.972656 92.242188 199.757812 92.242188 203.40625 L 92.242188 222.769531 C 92.242188 226.417969 90.78125 229.007812 87.78125 230.867188 C 83.960938 233.445312 79.84375 235.40625 75.429688 236.75 C 71.019531 238.09375 66.503906 238.765625 61.890625 238.761719 C 39.066406 238.703125 24.089844 222.515625 24.089844 201.417969 M 103.628906 167.515625 C 103.625 167.105469 103.664062 166.699219 103.742188 166.296875 C 103.820312 165.894531 103.9375 165.503906 104.09375 165.121094 C 104.25 164.742188 104.441406 164.382812 104.667969 164.039062 C 104.898438 163.699219 105.15625 163.382812 105.449219 163.09375 C 105.738281 162.804688 106.054688 162.542969 106.398438 162.316406 C 106.742188 162.089844 107.105469 161.898438 107.484375 161.742188 C 107.867188 161.589844 108.257812 161.472656 108.664062 161.394531 C 109.070312 161.316406 109.476562 161.28125 109.886719 161.285156 C 113.40625 161.285156 116.207031 164.074219 116.207031 167.523438 L 116.207031 231.734375 C 116.207031 235.246094 113.40625 237.96875 109.886719 237.96875 C 109.476562 237.96875 109.066406 237.933594 108.664062 237.855469 C 108.257812 237.777344 107.867188 237.660156 107.484375 237.507812 C 107.101562 237.351562 106.742188 237.160156 106.398438 236.933594 C 106.054688 236.703125 105.738281 236.445312 105.445312 236.15625 C 105.15625 235.863281 104.894531 235.550781 104.667969 235.207031 C 104.4375 234.863281 104.246094 234.503906 104.089844 234.125 C 103.933594 233.742188 103.816406 233.351562 103.738281 232.949219 C 103.660156 232.546875 103.625 232.140625 103.628906 231.726562 Z M 125.988281 210.433594 L 125.988281 210.238281 C 125.988281 194.585938 138.4375 181.648438 155.28125 181.648438 C 172.113281 181.648438 184.496094 194.382812 184.496094 210.039062 L 184.496094 210.238281 C 184.496094 225.761719 172.054688 238.761719 155.078125 238.761719 C 138.367188 238.695312 125.988281 225.960938 125.988281 210.441406 M 171.917969 210.441406 L 171.917969 210.238281 C 171.917969 200.625 164.929688 192.59375 155.078125 192.59375 C 144.957031 192.59375 138.574219 200.488281 138.574219 209.976562 L 138.574219 210.175781 C 138.574219 219.726562 145.558594 227.683594 155.273438 227.683594 C 165.460938 227.75 171.917969 219.855469 171.917969 210.441406 M 215.914062 238.496094 L 215.3125 238.496094 C 211.851562 238.496094 209.585938 236.308594 208.125 232.992188 L 189.816406 191.265625 C 189.488281 190.339844 189.089844 189.277344 189.089844 188.144531 C 189.089844 185.03125 191.886719 182.113281 195.351562 182.113281 C 198.804688 182.113281 200.535156 184.101562 201.605469 186.691406 L 215.714844 222.976562 L 230.089844 186.492188 C 231.023438 184.300781 232.6875 182.113281 236.011719 182.113281 C 239.472656 182.113281 242.136719 184.703125 242.136719 188.152344 C 242.136719 189.277344 241.734375 190.542969 241.40625 191.136719 L 223.097656 232.992188 C 221.636719 236.242188 219.375 238.496094 215.914062 238.496094 M 246.730469 210.441406 L 246.730469 210.238281 C 246.730469 194.585938 259.175781 181.648438 276.019531 181.648438 C 292.855469 181.648438 305.242188 194.390625 305.242188 210.039062 L 305.242188 210.238281 C 305.242188 225.761719 292.792969 238.761719 275.820312 238.761719 C 259.046875 238.695312 246.730469 225.960938 246.730469 210.441406 M 292.65625 210.441406 L 292.65625 210.238281 C 292.65625 200.625 285.667969 192.59375 275.820312 192.59375 C 265.703125 192.59375 259.3125 200.488281 259.3125 209.976562 L 259.3125 210.175781 C 259.3125 219.726562 266.296875 227.683594 276.085938 227.683594 C 286.199219 227.75 292.65625 219.855469 292.65625 210.441406 " fill-opacity="1" fill-rule="nonzero"/></g><g clip-path="url(#803e20641d)"><path fill="#ffcc1b" d="M 326.273438 131.96875 C 325.464844 131.96875 324.65625 132.007812 323.851562 132.085938 C 323.046875 132.164062 322.246094 132.28125 321.453125 132.441406 C 320.660156 132.597656 319.878906 132.792969 319.105469 133.027344 C 318.328125 133.261719 317.570312 133.53125 316.820312 133.839844 C 316.074219 134.148438 315.34375 134.492188 314.632812 134.871094 C 313.917969 135.25 313.226562 135.664062 312.550781 136.113281 C 311.878906 136.5625 311.230469 137.039062 310.605469 137.550781 C 309.980469 138.0625 309.382812 138.605469 308.808594 139.171875 C 308.238281 139.742188 307.695312 140.339844 307.183594 140.964844 C 306.667969 141.585938 306.1875 142.234375 305.738281 142.902344 C 305.289062 143.574219 304.875 144.261719 304.492188 144.972656 C 304.113281 145.683594 303.765625 146.414062 303.457031 147.15625 C 303.148438 147.902344 302.875 148.660156 302.640625 149.429688 C 302.40625 150.203125 302.210938 150.984375 302.054688 151.773438 C 301.894531 152.566406 301.777344 153.359375 301.699219 154.164062 C 301.617188 154.964844 301.578125 155.769531 301.578125 156.574219 C 301.578125 161.753906 303.175781 166.722656 306.234375 170.902344 L 306.902344 171.832031 L 319.746094 189.941406 C 319.746094 189.941406 321.339844 192.53125 324.742188 192.53125 L 327.871094 192.53125 C 331.261719 192.53125 332.863281 189.941406 332.863281 189.941406 L 345.703125 171.832031 L 346.371094 170.902344 C 347.890625 168.820312 349.046875 166.554688 349.84375 164.109375 C 350.640625 161.660156 351.039062 159.148438 351.035156 156.574219 C 351.03125 155.769531 350.988281 154.964844 350.90625 154.160156 C 350.824219 153.359375 350.703125 152.5625 350.542969 151.773438 C 350.382812 150.980469 350.183594 150.199219 349.945312 149.429688 C 349.710938 148.65625 349.433594 147.898438 349.125 147.15625 C 348.8125 146.410156 348.464844 145.683594 348.082031 144.972656 C 347.695312 144.261719 347.28125 143.574219 346.828125 142.902344 C 346.378906 142.234375 345.894531 141.585938 345.378906 140.964844 C 344.867188 140.339844 344.320312 139.746094 343.75 139.175781 C 343.175781 138.605469 342.574219 138.066406 341.949219 137.554688 C 341.324219 137.042969 340.671875 136.566406 340 136.117188 C 339.324219 135.667969 338.632812 135.257812 337.917969 134.875 C 337.203125 134.496094 336.472656 134.152344 335.722656 133.84375 C 334.976562 133.535156 334.214844 133.265625 333.441406 133.03125 C 332.664062 132.796875 331.882812 132.601562 331.085938 132.441406 C 330.292969 132.285156 329.496094 132.167969 328.6875 132.089844 C 327.882812 132.007812 327.074219 131.96875 326.265625 131.96875 M 336.449219 163.867188 L 335.78125 164.796875 L 326.332031 178.132812 L 316.8125 164.796875 L 316.144531 163.804688 C 314.566406 161.625 313.769531 159.191406 313.75 156.503906 C 313.75 155.6875 313.832031 154.875 313.988281 154.070312 C 314.148438 153.269531 314.386719 152.488281 314.703125 151.730469 C 315.015625 150.972656 315.402344 150.253906 315.855469 149.574219 C 316.3125 148.894531 316.832031 148.265625 317.414062 147.683594 C 317.996094 147.105469 318.628906 146.589844 319.3125 146.132812 C 319.996094 145.679688 320.714844 145.296875 321.476562 144.984375 C 322.234375 144.671875 323.019531 144.433594 323.824219 144.277344 C 324.628906 144.117188 325.445312 144.039062 326.265625 144.039062 C 327.089844 144.039062 327.902344 144.117188 328.707031 144.277344 C 329.515625 144.4375 330.296875 144.671875 331.054688 144.984375 C 331.816406 145.296875 332.535156 145.683594 333.21875 146.136719 C 333.902344 146.59375 334.535156 147.109375 335.117188 147.6875 C 335.699219 148.269531 336.214844 148.898438 336.671875 149.578125 C 337.128906 150.261719 337.511719 150.980469 337.828125 151.738281 C 338.140625 152.492188 338.378906 153.273438 338.539062 154.078125 C 338.695312 154.878906 338.777344 155.691406 338.773438 156.511719 C 338.78125 159.207031 338.003906 161.660156 336.449219 163.867188 M 319.339844 203.605469 C 319.339844 199.894531 322.273438 196.839844 326.195312 196.839844 C 330.195312 196.839844 333.050781 199.824219 333.050781 203.535156 L 333.050781 203.605469 C 333.050781 207.257812 330.121094 210.304688 326.128906 210.304688 C 322.203125 210.238281 319.339844 207.25 319.339844 203.605469 " fill-opacity="1" fill-rule="nonzero"/></g></svg>