<svg xmlns="http://www.w3.org/2000/svg" xmlns:xlink="http://www.w3.org/1999/xlink" width="500" zoomAndPan="magnify" viewBox="0 0 375 374.999991" height="500" preserveAspectRatio="xMidYMid meet" version="1.0"><path fill="#7ac356" d="M 104.636719 199.292969 C 107.359375 214.71875 107.054688 215.019531 93.144531 215.019531 C 82.558594 215.019531 71.976562 215.324219 61.390625 215.019531 C 55.644531 215.019531 52.921875 216.835938 52.921875 223.183594 C 53.226562 245.867188 51.410156 241.332031 70.765625 241.632812 C 81.351562 241.933594 91.933594 241.632812 102.21875 241.632812 C 106.453125 255.542969 105.242188 257.359375 92.238281 257.359375 C 81.957031 257.359375 71.671875 257.660156 61.390625 257.359375 C 55.644531 257.359375 52.921875 259.171875 52.921875 265.523438 C 53.226562 288.507812 51.410156 283.667969 70.765625 284.273438 C 81.351562 284.578125 91.933594 284.273438 102.519531 284.578125 C 103.125 284.578125 103.730469 284.878906 104.941406 285.179688 C 104.941406 289.71875 104.941406 294.554688 104.941406 300.605469 C 100.707031 300.605469 96.167969 300.605469 91.933594 300.605469 C 75.605469 300.605469 58.972656 300.605469 42.640625 300.605469 C 37.800781 300.605469 35.082031 299.09375 35.082031 293.648438 C 35.082031 264.617188 35.082031 235.585938 35.382812 206.550781 C 35.382812 204.132812 39.011719 200.203125 40.828125 199.898438 C 61.996094 198.992188 83.164062 199.292969 104.636719 199.292969 Z M 177.519531 293.953125 C 154.535156 305.445312 135.785156 302.417969 122.78125 286.089844 C 112.199219 273.085938 111.894531 253.125 122.175781 239.515625 C 134.578125 223.183594 154.839844 219.554688 176.308594 227.417969 C 182.964844 226.511719 189.617188 225.605469 197.480469 224.699219 C 197.480469 239.515625 197.480469 252.519531 197.480469 265.523438 C 197.480469 273.085938 197.78125 280.644531 197.480469 288.207031 C 197.175781 291.835938 195.664062 298.183594 194.152344 298.183594 C 188.105469 299.09375 180.847656 302.722656 177.519531 293.953125 Z M 155.445312 238.910156 C 142.742188 238.910156 131.855469 249.796875 132.15625 262.5 C 132.15625 275.203125 143.042969 285.785156 156.046875 285.484375 C 168.449219 285.179688 178.730469 274.898438 179.03125 262.5 C 178.730469 250.101562 167.84375 238.910156 155.445312 238.910156 Z M 155.445312 238.910156 " fill-opacity="1" fill-rule="nonzero"/><path fill="#000000" d="M 129.132812 70.464844 C 134.273438 70.464844 138.207031 70.464844 143.347656 70.464844 C 143.347656 81.957031 143.347656 93.144531 143.347656 102.824219 C 154.839844 100.707031 165.726562 97.378906 176.613281 97.378906 C 188.40625 97.378906 198.085938 104.335938 204.433594 114.917969 C 213.507812 130.34375 210.179688 151.210938 196.875 164.214844 C 182.660156 177.824219 163.910156 178.425781 144.859375 166.027344 C 142.441406 173.589844 142.441406 173.589844 128.832031 171.773438 C 129.132812 138.507812 129.132812 104.941406 129.132812 70.464844 Z M 169.050781 110.683594 C 155.445312 110.683594 143.953125 122.480469 143.953125 136.089844 C 143.953125 149.699219 155.746094 161.191406 169.355469 161.191406 C 182.964844 161.191406 194.457031 149.394531 194.152344 135.484375 C 194.152344 121.875 182.964844 110.683594 169.050781 110.683594 Z M 101.007812 70.765625 C 105.847656 70.765625 110.082031 70.765625 115.222656 70.765625 C 115.222656 104.335938 115.222656 137.902344 115.222656 172.078125 C 109.476562 171.472656 101.613281 177.21875 99.496094 165.421875 C 98.285156 166.027344 97.378906 166.332031 96.472656 166.933594 C 69.253906 184.777344 36.894531 169.960938 34.476562 137.601562 C 32.660156 115.828125 34.171875 93.75 34.171875 71.070312 C 39.011719 71.070312 43.851562 71.070312 49.898438 71.070312 C 50.203125 73.789062 50.503906 77.117188 50.503906 80.140625 C 50.503906 97.984375 49.898438 115.828125 50.804688 133.667969 C 51.714844 155.746094 71.671875 166.933594 88.910156 155.746094 C 98.285156 149.699219 100.707031 140.324219 101.007812 129.738281 C 101.007812 113.105469 101.007812 96.167969 101.007812 79.535156 C 100.402344 76.816406 100.707031 74.09375 101.007812 70.765625 Z M 101.007812 70.765625 " fill-opacity="1" fill-rule="nonzero"/><path fill="#7ac356" d="M 338.105469 247.378906 C 327.519531 248.285156 320.566406 249.496094 313.910156 241.933594 C 309.074219 236.191406 300.90625 235.585938 293.648438 239.214844 C 291.230469 240.421875 288.808594 243.144531 288.507812 245.261719 C 288.207031 246.773438 291.230469 250.101562 293.042969 250.707031 C 298.488281 252.824219 304.234375 254.03125 309.980469 255.542969 C 316.332031 257.359375 323.285156 258.265625 329.335938 260.988281 C 341.128906 267.035156 343.246094 280.644531 334.171875 290.625 C 320.566406 305.746094 285.484375 304.839844 273.085938 288.808594 C 270.664062 285.785156 269.457031 281.855469 267.339844 277.320312 C 276.714844 276.410156 283.972656 274.292969 290.324219 282.15625 C 295.160156 288.207031 308.164062 289.113281 315.121094 285.484375 C 317.238281 284.273438 319.960938 281.25 319.960938 279.132812 C 319.960938 277.015625 316.933594 273.992188 314.820312 273.386719 C 308.769531 271.574219 302.417969 270.664062 296.070312 269.152344 C 290.925781 267.945312 285.785156 266.734375 280.949219 264.316406 C 266.734375 257.359375 264.617188 241.933594 276.109375 231.046875 C 289.71875 218.648438 318.75 219.554688 330.847656 233.46875 C 333.570312 236.792969 335.082031 241.632812 338.105469 247.378906 Z M 338.105469 247.378906 " fill-opacity="1" fill-rule="nonzero"/><path fill="#000000" d="M 291.53125 140.625 C 271.875 140.625 252.519531 140.625 233.164062 140.625 C 237.398438 163.003906 258.265625 167.238281 278.527344 150.300781 C 281.550781 152.722656 284.578125 155.140625 287.902344 157.257812 C 280.949219 172.078125 259.777344 178.425781 240.726562 171.472656 C 221.671875 164.515625 211.695312 144.554688 217.441406 124.292969 C 222.582031 105.242188 243.449219 92.84375 263.710938 96.773438 C 282.460938 100.402344 293.648438 117.339844 291.53125 140.625 Z M 275.503906 128.226562 C 273.085938 116.128906 264.316406 109.777344 252.519531 110.382812 C 241.933594 110.988281 234.375 117.945312 233.46875 128.226562 C 247.378906 128.226562 261.289062 128.226562 275.503906 128.226562 Z M 275.503906 128.226562 " fill-opacity="1" fill-rule="nonzero"/><path fill="#7ac356" d="M 207.15625 240.121094 C 207.15625 235.585938 207.15625 231.351562 207.15625 227.417969 C 211.089844 222.882812 219.554688 229.839844 220.765625 221.070312 C 221.371094 215.925781 220.765625 210.785156 220.765625 204.738281 C 227.117188 204.738281 232.257812 204.738281 238.003906 204.738281 C 238.910156 211.695312 237.398438 220.160156 241.027344 224.09375 C 244.355469 227.417969 253.125 225.605469 259.777344 226.210938 C 259.777344 230.746094 259.777344 234.980469 259.777344 240.121094 C 255.542969 240.421875 251.007812 240.726562 246.773438 240.726562 C 241.027344 240.421875 238.304688 242.539062 238.609375 248.890625 C 238.910156 256.453125 238.609375 264.011719 238.609375 271.574219 C 238.609375 281.855469 240.121094 283.066406 250.402344 283.367188 C 253.125 283.367188 256.148438 283.667969 258.871094 283.667969 C 262.199219 298.789062 261.894531 299.394531 247.078125 298.789062 C 240.421875 298.488281 233.164062 298.183594 228.023438 294.859375 C 224.09375 292.441406 221.671875 285.179688 221.070312 280.039062 C 219.859375 270.363281 220.464844 260.683594 220.765625 251.007812 C 221.070312 244.050781 219.859375 239.515625 211.390625 240.421875 C 210.484375 241.027344 208.972656 240.421875 207.15625 240.121094 Z M 207.15625 240.121094 " fill-opacity="1" fill-rule="nonzero"/><path fill="#000000" d="M 339.917969 95.566406 C 339.917969 102.519531 339.917969 106.753906 339.917969 111.894531 C 338.40625 112.199219 336.59375 112.5 335.082031 112.800781 C 322.679688 113.710938 317.84375 118.546875 317.539062 131.25 C 317.238281 144.859375 317.539062 158.46875 317.539062 172.679688 C 312.097656 172.679688 307.558594 172.679688 302.722656 172.679688 C 302.722656 148.183594 302.722656 123.992188 302.722656 99.195312 C 308.46875 99.496094 315.421875 94.050781 318.449219 102.824219 C 324.796875 100.101562 331.753906 97.984375 339.917969 95.566406 Z M 339.917969 95.566406 " fill-opacity="1" fill-rule="nonzero"/></svg>